<svg width="513" height="651" viewBox="0 0 513 651" fill="none" xmlns="http://www.w3.org/2000/svg">
<path fill-rule="evenodd" clip-rule="evenodd" d="M305.771 310.118L382.576 386.924L386.924 382.576L310.118 305.771L355.832 260.057L437.794 260.057V253.909L356.29 253.909L309.864 207.483L386.924 130.424L382.576 126.076L305.517 203.136L259.724 157.343L259.724 75.3814L253.576 75.3814L253.576 157.5L207.712 203.364L130.424 126.076L126.076 130.424L203.364 207.712L157.167 253.909L75.0482 253.909V260.057L157.624 260.057L203.11 305.543L126.076 382.576L130.424 386.924L207.457 309.89L253.576 356.009L253.576 438.127L259.724 438.127L259.724 356.165L305.771 310.118ZM305.288 300.94L346.171 260.057L264.405 260.057L305.288 300.94ZM259.724 264.072L300.94 305.288L259.724 346.504L259.724 264.072ZM253.576 249.228V167.161L212.542 208.195L253.576 249.228ZM208.195 212.542L249.561 253.909L166.828 253.909L208.195 212.542ZM259.724 167.004L300.686 207.966L259.724 248.928V167.004ZM305.034 212.314L263.438 253.909L346.629 253.909L305.034 212.314ZM167.285 260.057H248.595L207.94 300.712L167.285 260.057ZM253.576 263.772L212.288 305.06L253.576 346.348L253.576 263.772Z" fill="#5D5FEF"/>
<path d="M261.08 523.8C261.08 530.76 258.8 538.04 254.24 545.64C249.76 553.24 243.52 559.88 235.52 565.56C227.6 571.16 219.4 574.68 210.92 576.12C206.04 585.96 202.52 592.84 200.36 596.76L197.84 600.84C213.68 604.76 226.8 610.72 237.2 618.72C242.48 622.8 246.04 627.8 247.88 633.72C248.84 636.76 249.32 639.36 249.32 641.52C249.32 643.68 248.88 645.48 248 646.92C247.2 648.44 246.24 649.48 245.12 650.04C244 650.6 243.2 650.88 242.72 650.88C242.24 650.88 242 650.68 242 650.28C242 649.88 242.44 648.68 243.32 646.68C244.28 644.76 244.76 642.48 244.76 639.84C244.76 637.2 244.2 634.28 243.08 631.08C241.96 627.88 239.88 624.92 236.84 622.2C233.8 619.56 229.56 617.08 224.12 614.76C218.76 612.36 214.08 610.68 210.08 609.72C206.16 608.68 200.88 607.52 194.24 606.24C187.44 615.76 180.36 622.28 173 625.8C168.6 627.96 164.68 629.04 161.24 629.04C157.88 629.04 154.88 628.36 152.24 627C147.68 624.76 145.4 621.36 145.4 616.8C145.4 612.24 148.4 608.24 154.4 604.8C161.2 600.8 170.4 598.8 182 598.8C186.16 598.8 189.92 599.12 193.28 599.76C196.88 594.16 201.08 586.44 205.88 576.6C205.4 576.6 204.96 576.6 204.56 576.6C199.52 576.6 194.84 575.76 190.52 574.08C186.2 572.4 182.76 570.12 180.2 567.24C176.84 563.48 175.16 559.24 175.16 554.52C175.16 552.04 175.76 549.36 176.96 546.48C178.24 543.6 181 540.68 185.24 537.72C189.56 534.76 195 532.52 201.56 531C202.6 530.76 203.48 530.64 204.2 530.64C204.92 530.64 205.36 530.84 205.52 531.24C205.68 531.64 205.36 532 204.56 532.32C203.76 532.64 202.84 532.88 201.8 533.04C198.36 533.44 195.16 534.6 192.2 536.52C187.08 539.8 183.52 544.84 181.52 551.64C181.04 553.24 180.8 554.8 180.8 556.32C180.8 557.76 181.08 559.52 181.64 561.6C182.2 563.68 183.4 565.84 185.24 568.08C187.08 570.24 189.56 571.76 192.68 572.64C195.88 573.52 198.64 573.96 200.96 573.96C203.36 573.96 205.56 573.84 207.56 573.6L217.76 547.92C224.8 529.84 233.2 518.72 242.96 514.56C245.52 513.52 248 513 250.4 513C252.88 513 255.2 513.8 257.36 515.4C259.6 516.92 260.8 518.8 260.96 521.04C261.04 522 261.08 522.92 261.08 523.8ZM256.04 523.92C256.04 520.88 254.64 519.36 251.84 519.36C247.76 519.36 242.8 522.92 236.96 530.04C232.4 535.72 228 542.6 223.76 550.68C219.6 558.68 215.88 566.08 212.6 572.88C223.72 570.4 233.72 564.32 242.6 554.64C251.56 544.88 256.04 534.64 256.04 523.92ZM189.56 605.52C185.64 604.64 181.6 604.2 177.44 604.2C173.28 604.2 169 604.8 164.6 606C155.4 608.4 150 611.8 148.4 616.2C148.08 617 147.92 617.76 147.92 618.48C147.92 620.56 149.04 622.24 151.28 623.52C153.6 624.88 156.12 625.56 158.84 625.56C162.6 625.56 166.68 624.52 171.08 622.44C177.72 619.24 183.88 613.6 189.56 605.52ZM243.55 596.52C242.43 599.24 241.87 602.28 241.87 605.64C241.87 607.88 242.35 609.68 243.31 611.04C244.35 612.32 245.79 612.96 247.63 612.96C254.91 612.96 261.51 606.12 267.43 592.44C267.99 591.16 268.67 590.6 269.47 590.76C269.79 590.84 269.95 591.04 269.95 591.36C269.95 591.68 269.03 593.8 267.19 597.72C265.43 601.56 263.63 604.68 261.79 607.08C257.71 612.68 252.67 615.48 246.67 615.48C243.47 615.48 240.75 614.44 238.51 612.36C236.27 610.28 235.15 607.44 235.15 603.84C235.15 600.24 235.99 596.44 237.67 592.44C239.43 588.36 241.79 584.6 244.75 581.16C247.71 577.64 251.11 575.08 254.95 573.48C256.79 572.68 258.55 572.28 260.23 572.28C261.91 572.28 263.47 572.76 264.91 573.72C266.27 574.84 266.95 576.08 266.95 577.44C266.95 582.24 264.07 586.84 258.31 591.24C256.55 592.6 254.07 593.84 250.87 594.96C247.67 596 245.23 596.52 243.55 596.52ZM263.71 577.32C263.71 575.72 263.07 574.92 261.79 574.92C259.55 574.92 256.15 577.68 251.59 583.2C248.87 586.56 246.47 590.32 244.39 594.48C245.75 594.48 247.71 594 250.27 593.04C252.91 592.08 255.19 590.8 257.11 589.2C261.51 585.44 263.71 581.48 263.71 577.32ZM324.561 575.64C314.801 593 309.921 604.2 309.921 609.24C309.921 611.48 310.681 612.6 312.201 612.6C314.121 612.6 316.321 611.16 318.801 608.28C322.561 603.72 325.841 598.24 328.641 591.84C329.121 590.72 329.601 590.28 330.081 590.52C330.561 590.76 330.801 591.08 330.801 591.48C330.801 591.88 330.401 592.88 329.601 594.48C328.801 596.08 328.161 597.36 327.681 598.32C327.201 599.28 326.121 601.12 324.441 603.84C322.841 606.56 321.441 608.56 320.241 609.84C319.121 611.12 317.641 612.4 315.801 613.68C314.041 614.88 312.001 615.48 309.681 615.48C307.441 615.48 305.521 614.36 303.921 612.12C303.201 611.08 302.841 609.68 302.841 607.92C302.841 606.08 303.241 603.88 304.041 601.32C304.841 598.76 307.041 594.6 310.641 588.84C311.521 587.4 311.961 586.28 311.961 585.48C311.961 584.6 311.281 584.16 309.921 584.16C308.641 584.16 306.281 585.76 302.841 588.96C299.401 592.16 295.761 596.48 291.921 601.92C288.161 607.36 285.921 611.72 285.201 615C283.841 615 282.841 614.44 282.201 613.32C281.561 612.2 281.241 611.24 281.241 610.44C281.241 607.16 283.441 600.92 287.841 591.72C289.281 588.68 290.041 586.64 290.121 585.6C290.201 584.48 290.041 583.92 289.641 583.92C289.321 583.84 288.841 583.96 288.201 584.28C286.761 585 284.561 586.76 281.601 589.56C276.001 594.68 270.481 602.48 265.041 612.96C264.641 613.84 264.121 614.4 263.481 614.64C262.921 614.8 261.761 614.92 260.001 615C258.241 615.08 257.081 615.28 256.521 615.6C257.961 612.8 260.481 607.56 264.081 599.88C270.561 586.12 274.881 578.2 277.041 576.12C278.001 575.16 279.321 574.68 281.001 574.68C281.321 574.68 282.121 574.8 283.401 575.04C284.761 575.28 285.761 575.32 286.401 575.16C283.441 576.76 278.601 584.28 271.881 597.72C275.641 593.08 278.321 590.04 279.921 588.6C281.601 587.16 282.841 586.08 283.641 585.36C284.441 584.64 285.041 584.08 285.441 583.68C285.921 583.28 286.561 582.72 287.361 582C288.241 581.2 288.881 580.64 289.281 580.32C289.761 579.92 290.401 579.4 291.201 578.76C292.001 578.12 292.601 577.72 293.001 577.56C293.481 577.32 294.081 576.96 294.801 576.48C295.601 576 296.161 575.76 296.481 575.76C296.881 575.76 297.401 575.68 298.041 575.52C298.681 575.28 299.121 575.32 299.361 575.64C300.961 576.28 301.761 577.28 301.761 578.64C301.761 579.84 300.401 582.92 297.681 587.88C294.961 592.84 293.201 596.12 292.401 597.72C295.921 593.32 299.281 589.72 302.481 586.92C305.681 584.04 309.441 581.4 313.761 579C318.161 576.6 321.361 575.4 323.361 575.4C323.841 575.4 324.241 575.48 324.561 575.64ZM333.901 596.52C332.781 599.24 332.221 602.28 332.221 605.64C332.221 607.88 332.701 609.68 333.661 611.04C334.701 612.32 336.141 612.96 337.981 612.96C345.261 612.96 351.861 606.12 357.781 592.44C358.341 591.16 359.021 590.6 359.821 590.76C360.141 590.84 360.301 591.04 360.301 591.36C360.301 591.68 359.381 593.8 357.541 597.72C355.781 601.56 353.981 604.68 352.141 607.08C348.061 612.68 343.021 615.48 337.021 615.48C333.821 615.48 331.101 614.44 328.861 612.36C326.621 610.28 325.501 607.44 325.501 603.84C325.501 600.24 326.341 596.44 328.021 592.44C329.781 588.36 332.141 584.6 335.101 581.16C338.061 577.64 341.461 575.08 345.301 573.48C347.141 572.68 348.901 572.28 350.581 572.28C352.261 572.28 353.821 572.76 355.261 573.72C356.621 574.84 357.301 576.08 357.301 577.44C357.301 582.24 354.421 586.84 348.661 591.24C346.901 592.6 344.421 593.84 341.221 594.96C338.021 596 335.581 596.52 333.901 596.52ZM354.061 577.32C354.061 575.72 353.421 574.92 352.141 574.92C349.901 574.92 346.501 577.68 341.941 583.2C339.221 586.56 336.821 590.32 334.741 594.48C336.101 594.48 338.061 594 340.621 593.04C343.261 592.08 345.541 590.8 347.461 589.2C351.861 585.44 354.061 581.48 354.061 577.32Z" fill="#5D5FEF"/>
<path fill-rule="evenodd" clip-rule="evenodd" d="M256.559 174.14L174.184 256.515L256.559 338.89L338.933 256.515L256.559 174.14ZM256.559 183.101L183.145 256.515L256.559 329.929L329.972 256.515L256.559 183.101ZM256.963 279.927C269.645 279.927 279.926 269.646 279.926 256.963C279.926 244.281 269.645 234 256.963 234C244.281 234 234 244.281 234 256.963C234 269.646 244.281 279.927 256.963 279.927Z" fill="#B5B5F8" fill-opacity="0.83"/>
</svg>
