<svg width="578" height="215" viewBox="0 0 578 215" fill="none" xmlns="http://www.w3.org/2000/svg">
<path fill-rule="evenodd" clip-rule="evenodd" d="M136.601 138.669L181.966 184.034L184.534 181.466L139.169 136.101L166.169 109.101L214.579 109.101V105.47H166.439L139.018 78.0491L184.533 32.5338L181.966 29.966L136.45 75.4813L109.403 48.4343L109.403 0.023683L105.772 0.0236816L105.772 48.5262L78.6828 75.6152L33.0337 29.966L30.4659 32.5338L76.115 78.1829L48.8282 105.47H0.326173L0.326172 109.101H49.0984L75.9644 135.967L30.4657 181.466L33.0335 184.034L78.5322 138.535L105.772 165.775L105.772 214.277H109.403L109.403 165.867L136.601 138.669ZM136.316 133.248L160.462 109.101L112.169 109.101L136.316 133.248ZM109.403 111.471L133.748 135.816L109.403 160.16L109.403 111.471ZM105.772 102.704L105.772 54.2323L81.5359 78.4682L105.772 102.704ZM78.9681 81.036L103.402 105.47H54.5344L78.9681 81.036ZM105.772 160.069L81.3852 135.682L105.772 111.295L105.772 160.069ZM160.732 105.47H111.597L136.165 80.9023L160.732 105.47ZM109.403 102.528L133.597 78.3345L109.403 54.1406V102.528ZM78.8174 133.114L102.83 109.101L54.8044 109.101L78.8174 133.114Z" fill="#FF6006"/>
<path d="M264.28 139C263.746 139 263.32 138.84 263 138.52C262.68 138.2 262.52 137.773 262.52 137.24V84.76C262.52 84.2266 262.68 83.8 263 83.48C263.32 83.16 263.746 83 264.28 83H265.8C266.333 83 266.76 83.16 267.08 83.48C267.4 83.8 267.56 84.2266 267.56 84.76V134.2H295.16C295.746 134.2 296.2 134.36 296.52 134.68C296.84 135 297 135.453 297 136.04V137.24C297 137.773 296.84 138.2 296.52 138.52C296.2 138.84 295.746 139 295.16 139H264.28Z" fill="#F6CCA6"/>
<path d="M319.732 139.8C314.559 139.8 310.452 138.12 307.412 134.76C304.372 131.347 302.639 126.893 302.212 121.4C302.159 120.6 302.132 119.533 302.132 118.2C302.132 116.867 302.159 115.8 302.212 115C302.479 111.373 303.332 108.173 304.772 105.4C306.212 102.627 308.185 100.467 310.692 98.92C313.252 97.3733 316.265 96.6 319.732 96.6C323.465 96.6 326.639 97.4266 329.252 99.08C331.865 100.733 333.865 103.107 335.252 106.2C336.692 109.293 337.412 112.973 337.412 117.24V118.44C337.412 118.973 337.225 119.4 336.852 119.72C336.532 120.04 336.105 120.2 335.572 120.2H307.092C307.092 120.2 307.092 120.307 307.092 120.52C307.092 120.733 307.092 120.893 307.092 121C307.199 123.4 307.759 125.693 308.772 127.88C309.785 130.013 311.225 131.773 313.092 133.16C314.959 134.493 317.172 135.16 319.732 135.16C322.025 135.16 323.919 134.813 325.412 134.12C326.959 133.427 328.185 132.68 329.092 131.88C329.999 131.027 330.585 130.387 330.852 129.96C331.332 129.267 331.705 128.867 331.972 128.76C332.239 128.6 332.665 128.52 333.252 128.52H334.532C335.012 128.52 335.412 128.68 335.732 129C336.105 129.267 336.265 129.64 336.212 130.12C336.159 130.867 335.732 131.8 334.932 132.92C334.185 133.987 333.092 135.053 331.652 136.12C330.265 137.187 328.559 138.067 326.532 138.76C324.505 139.453 322.239 139.8 319.732 139.8ZM307.092 115.72H332.532V115.4C332.532 112.733 332.025 110.333 331.012 108.2C329.999 106.067 328.532 104.387 326.612 103.16C324.692 101.88 322.399 101.24 319.732 101.24C317.065 101.24 314.772 101.88 312.852 103.16C310.985 104.387 309.545 106.067 308.532 108.2C307.572 110.333 307.092 112.733 307.092 115.4V115.72Z" fill="#F6CCA6"/>
<path d="M349.724 139C349.191 139 348.764 138.84 348.444 138.52C348.124 138.2 347.964 137.773 347.964 137.24V99.16C347.964 98.6266 348.124 98.2 348.444 97.88C348.764 97.56 349.191 97.4 349.724 97.4H351.084C351.617 97.4 352.044 97.56 352.364 97.88C352.684 98.2 352.844 98.6266 352.844 99.16V101.96C354.177 100.253 355.751 98.9466 357.564 98.04C359.431 97.08 361.671 96.6 364.284 96.6C370.257 96.6 374.524 99.1066 377.084 104.12C378.311 101.827 380.097 100.013 382.444 98.68C384.844 97.2933 387.591 96.6 390.684 96.6C393.511 96.6 396.044 97.2666 398.284 98.6C400.577 99.88 402.364 101.8 403.644 104.36C404.977 106.92 405.644 110.12 405.644 113.96V137.24C405.644 137.773 405.484 138.2 405.164 138.52C404.844 138.84 404.417 139 403.884 139H402.524C401.991 139 401.564 138.84 401.244 138.52C400.924 138.2 400.764 137.773 400.764 137.24V114.76C400.764 111.24 400.257 108.52 399.244 106.6C398.231 104.627 396.897 103.24 395.244 102.44C393.591 101.64 391.804 101.24 389.884 101.24C388.284 101.24 386.657 101.64 385.004 102.44C383.351 103.24 381.964 104.627 380.844 106.6C379.777 108.52 379.244 111.24 379.244 114.76V137.24C379.244 137.773 379.084 138.2 378.764 138.52C378.444 138.84 378.017 139 377.484 139H376.124C375.591 139 375.164 138.84 374.844 138.52C374.524 138.2 374.364 137.773 374.364 137.24V114.76C374.364 111.24 373.831 108.52 372.764 106.6C371.697 104.627 370.337 103.24 368.684 102.44C367.031 101.64 365.297 101.24 363.484 101.24C361.884 101.24 360.257 101.64 358.604 102.44C356.951 103.24 355.564 104.627 354.444 106.6C353.377 108.52 352.844 111.213 352.844 114.68V137.24C352.844 137.773 352.684 138.2 352.364 138.52C352.044 138.84 351.617 139 351.084 139H349.724Z" fill="#F6CCA6"/>
<path d="M433.638 139.8C428.465 139.8 424.358 138.12 421.318 134.76C418.278 131.347 416.545 126.893 416.118 121.4C416.065 120.6 416.038 119.533 416.038 118.2C416.038 116.867 416.065 115.8 416.118 115C416.385 111.373 417.238 108.173 418.678 105.4C420.118 102.627 422.092 100.467 424.598 98.92C427.158 97.3733 430.172 96.6 433.638 96.6C437.372 96.6 440.545 97.4266 443.158 99.08C445.772 100.733 447.772 103.107 449.158 106.2C450.598 109.293 451.318 112.973 451.318 117.24V118.44C451.318 118.973 451.132 119.4 450.758 119.72C450.438 120.04 450.012 120.2 449.478 120.2H420.998C420.998 120.2 420.998 120.307 420.998 120.52C420.998 120.733 420.998 120.893 420.998 121C421.105 123.4 421.665 125.693 422.678 127.88C423.692 130.013 425.132 131.773 426.998 133.16C428.865 134.493 431.078 135.16 433.638 135.16C435.932 135.16 437.825 134.813 439.318 134.12C440.865 133.427 442.092 132.68 442.998 131.88C443.905 131.027 444.492 130.387 444.758 129.96C445.238 129.267 445.612 128.867 445.878 128.76C446.145 128.6 446.572 128.52 447.158 128.52H448.438C448.918 128.52 449.318 128.68 449.638 129C450.012 129.267 450.172 129.64 450.118 130.12C450.065 130.867 449.638 131.8 448.838 132.92C448.092 133.987 446.998 135.053 445.558 136.12C444.172 137.187 442.465 138.067 440.438 138.76C438.412 139.453 436.145 139.8 433.638 139.8ZM420.998 115.72H446.438V115.4C446.438 112.733 445.932 110.333 444.918 108.2C443.905 106.067 442.438 104.387 440.518 103.16C438.598 101.88 436.305 101.24 433.638 101.24C430.972 101.24 428.678 101.88 426.758 103.16C424.892 104.387 423.452 106.067 422.438 108.2C421.478 110.333 420.998 112.733 420.998 115.4V115.72Z" fill="#F6CCA6"/>
<path d="M499.64 139.8C496.653 139.8 493.826 139.427 491.16 138.68C488.493 137.933 486.12 136.813 484.04 135.32C481.96 133.773 480.306 131.88 479.08 129.64C477.906 127.4 477.266 124.787 477.16 121.8C477.16 121.32 477.32 120.92 477.64 120.6C477.96 120.227 478.386 120.04 478.92 120.04H488.04C488.733 120.04 489.266 120.227 489.64 120.6C490.066 120.973 490.386 121.507 490.6 122.2C490.866 123.907 491.426 125.293 492.28 126.36C493.133 127.427 494.2 128.227 495.48 128.76C496.813 129.24 498.306 129.48 499.96 129.48C503 129.48 505.32 128.493 506.92 126.52C508.573 124.547 509.4 121.747 509.4 118.12V93.64H482.76C482.226 93.64 481.773 93.4533 481.4 93.08C481.026 92.7066 480.84 92.2533 480.84 91.72V85C480.84 84.4133 481.026 83.9333 481.4 83.56C481.773 83.1866 482.226 83 482.76 83H520.44C521.026 83 521.506 83.1866 521.88 83.56C522.253 83.9333 522.44 84.4133 522.44 85V118.44C522.44 123.027 521.48 126.92 519.56 130.12C517.64 133.267 514.973 135.667 511.56 137.32C508.146 138.973 504.173 139.8 499.64 139.8Z" fill="#FF6006"/>
<path d="M553.97 139.8C548.85 139.8 544.557 139.053 541.09 137.56C537.677 136.067 535.09 134.12 533.33 131.72C531.57 129.32 530.637 126.76 530.53 124.04C530.53 123.613 530.69 123.24 531.01 122.92C531.33 122.547 531.73 122.36 532.21 122.36H540.77C541.464 122.36 541.997 122.52 542.37 122.84C542.743 123.107 543.09 123.453 543.41 123.88C543.783 124.787 544.37 125.667 545.17 126.52C546.023 127.373 547.17 128.093 548.61 128.68C550.05 129.213 551.837 129.48 553.97 129.48C557.437 129.48 560.023 128.92 561.73 127.8C563.49 126.68 564.37 125.16 564.37 123.24C564.37 121.853 563.89 120.733 562.93 119.88C562.023 119.027 560.557 118.253 558.53 117.56C556.557 116.867 553.917 116.12 550.61 115.32C546.61 114.467 543.197 113.373 540.37 112.04C537.597 110.653 535.49 108.893 534.05 106.76C532.664 104.573 531.97 101.88 531.97 98.68C531.97 95.48 532.85 92.6533 534.61 90.2C536.37 87.6933 538.85 85.7466 542.05 84.36C545.25 82.92 549.063 82.2 553.49 82.2C557.063 82.2 560.21 82.68 562.93 83.64C565.703 84.6 567.997 85.8533 569.81 87.4C571.677 88.9466 573.09 90.6 574.05 92.36C575.01 94.12 575.517 95.8266 575.57 97.4799C575.57 97.9066 575.41 98.3066 575.09 98.68C574.77 99 574.37 99.16 573.89 99.16H564.93C564.397 99.16 563.917 99.0533 563.49 98.84C563.063 98.6266 562.717 98.2533 562.45 97.72C562.13 96.3333 561.17 95.1333 559.57 94.12C558.023 93.0533 555.997 92.52 553.49 92.52C550.877 92.52 548.797 93 547.25 93.96C545.757 94.92 545.01 96.3866 545.01 98.36C545.01 99.64 545.383 100.733 546.13 101.64C546.93 102.493 548.237 103.267 550.05 103.96C551.917 104.6 554.37 105.32 557.41 106.12C562.103 107.08 565.917 108.227 568.85 109.56C571.783 110.893 573.944 112.627 575.33 114.76C576.717 116.84 577.41 119.48 577.41 122.68C577.41 126.253 576.397 129.32 574.37 131.88C572.397 134.44 569.65 136.413 566.13 137.8C562.663 139.133 558.61 139.8 553.97 139.8Z" fill="#FF6006"/>
<path fill-rule="evenodd" clip-rule="evenodd" d="M107.654 58.9999L59 107.654L107.654 156.308L156.308 107.654L107.654 58.9999ZM107.654 64.2928L64.2927 107.654L107.654 151.015L151.015 107.654L107.654 64.2928ZM107.893 121.482C115.383 121.482 121.456 115.409 121.456 107.919C121.456 100.428 115.383 94.3558 107.893 94.3558C100.402 94.3558 94.3297 100.428 94.3297 107.919C94.3297 115.409 100.402 121.482 107.893 121.482Z" fill="#F6CCA6"/>
</svg>
